<?xml version="1.0" standalone="no"?>
<!DOCTYPE svg PUBLIC "-//W3C//DTD SVG 20010904//EN"
 "http://www.w3.org/TR/2001/REC-SVG-20010904/DTD/svg10.dtd">
<svg version="1.0" xmlns="http://www.w3.org/2000/svg"
 width="200px" height="200px" viewBox="0 0 800.000000 800.000000"
 preserveAspectRatio="xMidYMid meet">

<g transform="translate(0.000000,800.000000) scale(0.100000,-0.100000)"
fill="#000000" stroke="none">
<path d="M3712 6806 c-6 -250 -105 -458 -397 -836 -189 -244 -275 -379 -341
-533 -26 -62 -35 -73 -95 -112 -36 -24 -95 -74 -132 -109 -231 -226 -235 -441
-12 -674 l80 -85 33 28 32 27 -44 39 c-63 56 -142 164 -166 227 -37 98 -26
164 47 274 38 58 165 188 184 188 3 0 -1 -33 -9 -72 -20 -102 -19 -321 3 -423
21 -101 55 -205 66 -205 5 0 17 -8 27 -17 10 -10 43 -30 75 -45 61 -30 133
-89 142 -117 3 -10 -1 -31 -10 -47 -8 -16 -15 -36 -15 -45 0 -9 -10 -23 -22
-32 -23 -15 -23 -16 67 -104 87 -87 195 -167 283 -212 23 -12 42 -26 42 -31 0
-5 -15 -51 -34 -103 -39 -109 -90 -286 -106 -372 -6 -33 -13 -69 -15 -81 -4
-17 3 -23 32 -32 44 -13 53 -9 53 26 0 70 121 496 149 525 4 4 40 -4 81 -18
247 -84 568 -80 782 10 109 46 101 49 138 -52 44 -122 75 -246 96 -393 9 -69
18 -126 19 -127 0 -1 18 3 38 9 44 14 45 17 18 173 -25 145 -55 260 -97 371
-19 51 -34 94 -34 96 0 3 34 31 75 63 195 149 354 391 421 640 23 86 28 126
32 278 2 97 6 177 8 177 2 0 30 -20 61 -45 84 -64 187 -115 233 -115 55 0 154
38 230 90 89 59 211 162 207 174 -2 5 -15 18 -29 29 l-26 19 -98 -82 c-124
-102 -226 -155 -284 -147 -52 7 -128 52 -240 144 -74 61 -89 78 -95 110 -33
176 -172 479 -316 688 -190 275 -496 577 -774 762 -129 87 -325 193 -354 193
-4 0 -8 -42 -9 -94z m68 -1521 l0 -55 55 0 55 0 0 -70 0 -70 -55 0 -55 0 0
-55 0 -55 -70 0 -70 0 0 55 0 55 -60 0 -60 0 0 70 0 70 60 0 60 0 0 55 0 55
70 0 70 0 0 -55z"/>
<path d="M6115 6748 c-24 -80 -149 -309 -250 -459 -134 -199 -155 -237 -185
-337 -18 -60 -22 -91 -18 -165 3 -81 8 -101 42 -170 49 -103 135 -191 231
-238 68 -33 73 -34 195 -34 119 0 128 1 190 31 169 81 280 256 280 440 0 137
-43 233 -222 497 -79 116 -177 295 -219 400 -25 62 -34 69 -44 35z"/>
</g>
</svg>
