<?xml version="1.0" standalone="no"?>
<!DOCTYPE svg PUBLIC "-//W3C//DTD SVG 20010904//EN"
 "http://www.w3.org/TR/2001/REC-SVG-20010904/DTD/svg10.dtd">
<svg version="1.0" xmlns="http://www.w3.org/2000/svg"
 width="225.000000pt" height="225.000000pt" viewBox="0 0 225.000000 225.000000"
 preserveAspectRatio="xMidYMid meet">

<g transform="translate(0.000000,225.000000) scale(0.100000,-0.100000)"
fill="orangered" stroke="none">
<path d="M1057 2120 c-113 -29 -207 -126 -232 -237 l-7 -33 -165 0 c-191 0
-226 -8 -289 -63 -56 -50 -85 -105 -91 -177 -10 -105 41 -202 133 -256 l44
-26 0 -477 c0 -412 2 -484 16 -525 22 -64 100 -147 166 -177 l53 -24 440 0
440 0 53 24 c66 30 144 113 166 177 14 41 16 113 16 525 l0 477 44 26 c92 54
143 151 133 256 -6 72 -35 127 -91 177 -63 55 -98 63 -289 63 l-165 0 -7 33
c-35 161 -212 276 -368 237z m143 -150 c40 -21 76 -62 82 -95 3 -19 -3 -20
-157 -20 -154 0 -160 1 -157 20 6 32 41 74 80 95 48 25 103 25 152 0z m565
-264 c92 -39 101 -179 15 -230 -25 -14 -93 -16 -655 -16 -689 0 -662 -2 -699
60 -36 62 -7 157 57 185 48 21 1232 22 1282 1z m-97 -811 c2 -231 0 -443 -3
-472 -8 -64 -38 -110 -90 -140 -40 -22 -43 -23 -450 -23 -406 0 -410 1 -449
23 -48 27 -75 62 -86 113 -11 45 -14 907 -3 917 3 4 248 6 542 5 l536 -3 3
-420z"/>
<path d="M918 1108 c-43 -15 -48 -49 -48 -325 0 -279 5 -304 56 -317 20 -5 35
-2 53 12 l26 19 3 288 c2 251 0 290 -13 306 -21 23 -44 28 -77 17z"/>
<path d="M1285 1110 c-45 -17 -45 -23 -43 -325 l3 -288 26 -19 c18 -14 33 -17
53 -12 51 13 56 38 56 317 0 155 -4 266 -11 285 -12 34 -52 54 -84 42z"/>
</g>
</svg>
